# xmcd
#
# Track frame offsets:
#	150
#	18906
#	39006
#	57903
#	74598
#	87516
#	99800
#	113668
#	129356
#	145787
#	162818
#	185671
#	215914
#
# Disc length: 3131 seconds
#
# Revision: 1
# Processed by: cddbd v1.5.1PL0 Copyright (c) Steve Scherf et al.
# Submitted via: audiograbber 1.81.02
#
DISCID=ad0c390d
DTITLE=Shaun Groves - White Flag (www.gerth.de)
DYEAR=2005
DGENRE=Christian Rock
TTITLE0=Whats Wrong With This World
TTITLE1=Sad Song
TTITLE2=Amen
TTITLE3=White Flag
TTITLE4=Crave
TTITLE5=Hummingbird
TTITLE6=Heaven Hang On
TTITLE7=Bless The Lord
TTITLE8=Only
TTITLE9=My Enemy
TTITLE10=Peace Has Broken Out
TTITLE11=Narrow
TTITLE12=Daten-CD
EXTD=www.gerth.de 
EXTT0=
EXTT1=
EXTT2=
EXTT3=
EXTT4=
EXTT5=
EXTT6=
EXTT7=
EXTT8=
EXTT9=
EXTT10=
EXTT11=
EXTT12=
PLAYORDER=
